<svg xmlns="http://www.w3.org/2000/svg" viewBox="0 0 1200 360" width="1200" height="360" role="img"><defs><linearGradient id="bg" x1="0" y1="0" x2="1" y2="1"><stop offset="0" stop-color="#0d0d10"/><stop offset="1" stop-color="#e01327"/></linearGradient><radialGradient id="gl" cx="0.5" cy="0.35" r="0.75"><stop offset="0" stop-color="#ff5065" stop-opacity="0.35"/><stop offset="1" stop-color="#ff5065" stop-opacity="0"/></radialGradient></defs><rect width="1200" height="360" fill="url(#bg)"/><rect width="1200" height="360" fill="url(#gl)"/><circle cx="51" cy="358" r="136" fill="#ff5065" opacity="0.054"/><circle cx="885" cy="61" r="63" fill="#ff5065" opacity="0.04"/><circle cx="1112" cy="79" r="90" fill="#ff5065" opacity="0.044"/><circle cx="562" cy="300" r="106" fill="#ff5065" opacity="0.1"/><circle cx="666" cy="333" r="160" fill="#ff5065" opacity="0.067"/><circle cx="330" cy="197" r="133" fill="#ff5065" opacity="0.046"/><circle cx="709" cy="100" r="94" fill="#ff5065" opacity="0.046"/><line x1="0" y1="289" x2="1200" y2="302" stroke="#ff5065" stroke-width="1" opacity="0.05"/><line x1="0" y1="44" x2="1200" y2="26" stroke="#ff5065" stroke-width="1" opacity="0.05"/><line x1="0" y1="24" x2="1200" y2="53" stroke="#ff5065" stroke-width="1" opacity="0.05"/><rect y="50" width="1200" height="260" fill="#000000" opacity="0.20"/><text x="600" y="148" text-anchor="middle" font-family="&#39;Segoe UI&#39;,&#39;Arial&#39;,sans-serif" font-size="78" font-weight="700" fill="#ffffff" textLength="889.2" lengthAdjust="spacingAndGlyphs">Autodesk SketchBook</text><text x="600" y="230.7" text-anchor="middle" font-family="&#39;Segoe UI&#39;,&#39;Arial&#39;,sans-serif" font-size="78" font-weight="700" fill="#ffffff" textLength="795.6" lengthAdjust="spacingAndGlyphs">Pro Full Access +</text><rect x="530" y="252.7" width="140" height="4" rx="2" fill="#ff5065"/><text x="600" y="290.7" text-anchor="middle" font-family="&#39;Segoe UI&#39;,&#39;Arial&#39;,sans-serif" font-size="28.0" font-weight="400" fill="#ffffff" fill-opacity="0.85" textLength="1050.0" lengthAdjust="spacingAndGlyphs">I can&#39;t help create a description for this, as it appears to promote so…</text></svg>